<svg xmlns="http://www.w3.org/2000/svg" viewBox="0 0 150 36.34"><title>logo_PayPal</title><g id="Layer_2" data-name="Layer 2"><g id="Layer_1-2" data-name="Layer 1"><path d="M13.09,8.55H23.34c5.5,0,7.57,2.79,7.25,6.89-.52,6.76-4.61,10.49-10,10.49H17.82c-.74,0-1.24.49-1.44,1.83l-1.17,7.75c-.08.5-.34.8-.74.83H8c-.61,0-.82-.46-.66-1.46L11.3,10A1.58,1.58,0,0,1,13.09,8.55Z" style="fill:#009ee3;fill-rule:evenodd"/><path d="M57.59,8.09c3.46,0,6.65,1.88,6.21,6.56-.52,5.54-3.5,8.63-8.2,8.64H51.5c-.59,0-.88.48-1,1.47l-.79,5c-.12.76-.51,1.13-1.09,1.13H44.77c-.61,0-.82-.39-.69-1.26L47.24,9.46c.15-1,.53-1.37,1.21-1.37ZM51.37,18.92h3.11c1.94-.07,3.24-1.42,3.37-3.85a2.35,2.35,0,0,0-2.55-2.56H52.37l-1,6.4ZM74.18,29.39c.35-.31.7-.48.65-.09l-.12.94c-.07.49.13.75.58.75h3.4c.57,0,.85-.23,1-1.12l2.09-13.11c.1-.66-.06-1-.56-1H77.48c-.33,0-.5.19-.59.71l-.13.8c-.08.43-.27.5-.45.07-.63-1.49-2.25-2.17-4.51-2.12-5.23.11-8.76,4.08-9.13,9.17a6.3,6.3,0,0,0,6.24,7,6.73,6.73,0,0,0,5.27-2Zm-2.84-2a3.41,3.41,0,0,1-3.49-4,4.87,4.87,0,0,1,4.68-4,3.41,3.41,0,0,1,3.49,4,4.87,4.87,0,0,1-4.68,4ZM88.41,15.73H85c-.71,0-1,.52-.77,1.18l4.27,12.51-4.21,5.95c-.35.49-.08,1,.42,1h3.86a1.18,1.18,0,0,0,1.15-.57l13.13-18.84c.41-.58.22-1.19-.45-1.19H98.73c-.63,0-.88.25-1.24.77l-5.48,8-2.43-8A1.07,1.07,0,0,0,88.41,15.73Z" style="fill:#113984;fill-rule:evenodd"/><path d="M116.5,8.09c3.46,0,6.65,1.88,6.22,6.56-.52,5.54-3.51,8.63-8.21,8.64h-4.1c-.59,0-.87.48-1,1.47l-.79,5c-.12.76-.51,1.13-1.09,1.13h-3.82c-.61,0-.82-.39-.68-1.26l3.15-20.22c.16-1,.54-1.37,1.21-1.37Zm-6.22,10.83h3.11c2-.07,3.24-1.42,3.37-3.85a2.34,2.34,0,0,0-2.55-2.56h-2.92l-1,6.4Zm22.81,10.47c.35-.31.71-.48.66-.09l-.13.94c-.06.49.13.75.59.75h3.39c.57,0,.85-.23,1-1.12l2.09-13.11c.1-.66-.05-1-.56-1H136.4c-.34,0-.5.19-.59.71l-.14.8c-.07.43-.26.5-.44.07-.64-1.49-2.25-2.17-4.51-2.12-5.24.11-8.76,4.08-9.14,9.17a6.3,6.3,0,0,0,6.25,7,6.71,6.71,0,0,0,5.26-2Zm-2.83-2a3.41,3.41,0,0,1-3.5-4,4.87,4.87,0,0,1,4.68-4,3.41,3.41,0,0,1,3.5,4,4.87,4.87,0,0,1-4.68,4ZM145.9,31H142a.45.45,0,0,1-.48-.54L145,8.68a.67.67,0,0,1,.65-.54h3.91a.46.46,0,0,1,.48.54l-3.44,21.79A.67.67,0,0,1,145.9,31Z" style="fill:#009ee3;fill-rule:evenodd"/><path d="M6.68,0H16.94c2.89,0,6.32.09,8.61,2.12A6.93,6.93,0,0,1,27.7,7.93c-.63,7.84-5.31,12.22-11.6,12.22H11c-.86,0-1.43.57-1.68,2.12L8,31.25c-.09.59-.34.93-.8,1H.83c-.71,0-1-.53-.77-1.7L4.61,1.7A1.81,1.81,0,0,1,6.68,0Z" style="fill:#113984;fill-rule:evenodd"/><path d="M9.51,21.37,11.3,10a1.58,1.58,0,0,1,1.79-1.47H23.34a9.94,9.94,0,0,1,4.14.76c-1,7-5.54,10.84-11.45,10.84H11C10.31,20.15,9.81,20.49,9.51,21.37Z" style="fill:#172c70;fill-rule:evenodd"/></g></g></svg>