<svg xmlns="http://www.w3.org/2000/svg" viewBox="0 0 80 39.92"><title>logo_PayU</title><g id="Layer_2" data-name="Layer 2"><g id="Layer_1-2" data-name="Layer 1"><path d="M69.35,15.07a1,1,0,0,1-.94-1V10h-.34c-2.15,0-3,.35-3,2.31V24.41a3.44,3.44,0,0,1-.46,1.89c-.59.91-1.75,1.32-3.61,1.32s-3-.41-3.6-1.32A3.41,3.41,0,0,1,57,24.41V12.28c0-2-.8-2.31-2.95-2.31h-.68c-2.15,0-3,.35-3,2.31V24.41a9,9,0,0,0,1.29,4.94C53.32,31.93,56.5,33.3,61,33.3h0c4.52,0,7.7-1.37,9.35-3.95a9,9,0,0,0,1.29-4.94V15.07Z" style="fill:#a6c307"/><rect x="75.06" y="3.38" width="4.94" height="4.98" rx="0.7" ry="0.7" style="fill:#a6c307"/><rect x="71.71" width="3.35" height="3.38" rx="0.47" ry="0.47" style="fill:#a6c307"/><path d="M9.12,10H4c-2.75,0-4,1.23-4,4V31.6C0,32.67.34,33,1.4,33h.35c1.06,0,1.41-.34,1.41-1.41V24.73h6c5.3,0,7.77-2.34,7.77-7.38S14.42,10,9.12,10Zm4.62,7.39c0,2.88-.74,4.44-4.62,4.44h-6V14.36c0-1,.38-1.42,1.41-1.42H9.12C12,12.94,13.74,13.66,13.74,17.35Z" style="fill:#a6c307"/><path d="M23.52,15a18.22,18.22,0,0,0-3.8.35c-.86.19-1.22.42-1.22,1.4v.28a1.53,1.53,0,0,0,.18.83.75.75,0,0,0,.68.33,2.35,2.35,0,0,0,.53-.08,19,19,0,0,1,3.77-.37c3.08,0,4.33.85,4.33,2.94v1.86H24.11c-5,0-7.31,1.69-7.31,5.3s2.4,5.44,6.75,5.44c5.18,0,7.49-1.76,7.49-5.72V20.71C31,16.89,28.58,15,23.52,15Zm4.47,10v2.42c0,2-.73,3.12-4.47,3.12-2.47,0-3.67-.9-3.67-2.74,0-2,1.2-2.8,4.3-2.8Z" style="fill:#a6c307"/><path d="M48.11,15.85a1.28,1.28,0,0,0-1-.31h-.31c-1,0-1.45.32-1.68,1.31l-2.88,12c-.36,1.47-.87,1.74-1.74,1.74-1.06,0-1.48-.25-1.9-1.75l-3.27-12a1.46,1.46,0,0,0-1.71-1.31h-.28a1.27,1.27,0,0,0-1,.32,1.3,1.3,0,0,0,0,1.1l3.3,12.1c.62,2.32,1.36,4.24,4.11,4.24A4.17,4.17,0,0,0,41,33.09c-.83,2.63-1.68,3.79-4.18,4-.51,0-.84.12-1,.36a1.24,1.24,0,0,0-.08.95l.07.31c.15.72.41,1.17,1.21,1.17l.28,0C41,39.66,43,37.65,44.18,33l4-16A1.31,1.31,0,0,0,48.11,15.85Z" style="fill:#a6c307"/><path d="M74.12,8.36H69.36a1,1,0,0,0-1,.94V10h.33c2.16,0,3,.35,3,2.31v2.79h2.42a.94.94,0,0,0,.94-.94V9.3A.94.94,0,0,0,74.12,8.36Z" style="fill:#a6c307"/></g></g></svg>